# xmcd
#
# Track frame offsets:
#  150
#  10570
#  23110
#  37935
#
# Disc length: 979 seconds
#
# Revision: 0
# Processed by: cddbd v1.5.1PL0 Copyright (c) Steve Scherf et al.
# Submitted via: Collectorz.com_Music_Collector 6.9
#
DISCID=1c03d104
DTITLE=DIVERS - PR Club 94
DYEAR=1994
DGENRE=
TTITLE0=Vinicius DE MORAES - Garota de Ipanema
TTITLE1=MAYSA - Agua de beber
TTITLE2=Maria CREUZA - A felicidade
TTITLE3=Jorge BEN - Taj mahal/Filho maravilha/Pais tropical
EXTD=
EXTT0=
EXTT1=
EXTT2=
EXTT3=
PLAYORDER=
